<mxfile host="app.diagrams.net" modified="2021-05-29T04:26:16.617Z" agent="5.0 (Windows NT 10.0; Win64; x64) AppleWebKit/537.36 (KHTML, like Gecko) Chrome/91.0.4472.77 Safari/537.36 Edg/91.0.864.37" etag="lZFTSJ8wpdoncu_egPvJ" version="14.6.11" type="github">
  <diagram id="C5RBs43oDa-KdzZeNtuy" name="Page-1">
    <mxGraphModel dx="1278" dy="1725" grid="1" gridSize="10" guides="1" tooltips="1" connect="1" arrows="1" fold="1" page="1" pageScale="1" pageWidth="827" pageHeight="1169" math="0" shadow="0">
      <root>
        <mxCell id="WIyWlLk6GJQsqaUBKTNV-0" />
        <mxCell id="WIyWlLk6GJQsqaUBKTNV-1" parent="WIyWlLk6GJQsqaUBKTNV-0" />
        <mxCell id="kMb_RQb3rzIzfez7uJGX-73" value="Client" style="shape=umlFrame;whiteSpace=wrap;html=1;" vertex="1" parent="WIyWlLk6GJQsqaUBKTNV-1">
          <mxGeometry x="10" y="-370" width="1410" height="1110" as="geometry" />
        </mxCell>
        <mxCell id="kMb_RQb3rzIzfez7uJGX-0" value="mainWindow" style="swimlane;fontStyle=2;align=center;verticalAlign=top;childLayout=stackLayout;horizontal=1;startSize=26;horizontalStack=0;resizeParent=1;resizeLast=0;collapsible=1;marginBottom=0;rounded=0;shadow=0;strokeWidth=1;" parent="WIyWlLk6GJQsqaUBKTNV-1" vertex="1">
          <mxGeometry x="650" y="400" width="160" height="138" as="geometry">
            <mxRectangle x="230" y="140" width="160" height="26" as="alternateBounds" />
          </mxGeometry>
        </mxCell>
        <mxCell id="kMb_RQb3rzIzfez7uJGX-1" value="" style="line;html=1;strokeWidth=1;align=left;verticalAlign=middle;spacingTop=-1;spacingLeft=3;spacingRight=3;rotatable=0;labelPosition=right;points=[];portConstraint=eastwest;" parent="kMb_RQb3rzIzfez7uJGX-0" vertex="1">
          <mxGeometry y="26" width="160" height="8" as="geometry" />
        </mxCell>
        <mxCell id="kMb_RQb3rzIzfez7uJGX-2" value="void show()&#xa;bpGameMode()&#xa;" style="text;align=left;verticalAlign=top;spacingLeft=4;spacingRight=4;overflow=hidden;rotatable=0;points=[[0,0.5],[1,0.5]];portConstraint=eastwest;" parent="kMb_RQb3rzIzfez7uJGX-0" vertex="1">
          <mxGeometry y="34" width="160" height="56" as="geometry" />
        </mxCell>
        <mxCell id="kMb_RQb3rzIzfez7uJGX-3" value="InputBox" style="swimlane;fontStyle=2;align=center;verticalAlign=top;childLayout=stackLayout;horizontal=1;startSize=26;horizontalStack=0;resizeParent=1;resizeLast=0;collapsible=1;marginBottom=0;rounded=0;shadow=0;strokeWidth=1;" parent="WIyWlLk6GJQsqaUBKTNV-1" vertex="1">
          <mxGeometry x="440" y="400" width="160" height="138" as="geometry">
            <mxRectangle x="230" y="140" width="160" height="26" as="alternateBounds" />
          </mxGeometry>
        </mxCell>
        <mxCell id="kMb_RQb3rzIzfez7uJGX-4" value="" style="line;html=1;strokeWidth=1;align=left;verticalAlign=middle;spacingTop=-1;spacingLeft=3;spacingRight=3;rotatable=0;labelPosition=right;points=[];portConstraint=eastwest;" parent="kMb_RQb3rzIzfez7uJGX-3" vertex="1">
          <mxGeometry y="26" width="160" height="8" as="geometry" />
        </mxCell>
        <mxCell id="kMb_RQb3rzIzfez7uJGX-5" value="void show()&#xa;bpGameMode()&#xa;" style="text;align=left;verticalAlign=top;spacingLeft=4;spacingRight=4;overflow=hidden;rotatable=0;points=[[0,0.5],[1,0.5]];portConstraint=eastwest;" parent="kMb_RQb3rzIzfez7uJGX-3" vertex="1">
          <mxGeometry y="34" width="160" height="56" as="geometry" />
        </mxCell>
        <mxCell id="kMb_RQb3rzIzfez7uJGX-64" value="server" style="shape=umlFrame;whiteSpace=wrap;html=1;" vertex="1" parent="WIyWlLk6GJQsqaUBKTNV-1">
          <mxGeometry x="1654" y="-375" width="1390" height="1110" as="geometry" />
        </mxCell>
        <mxCell id="kMb_RQb3rzIzfez7uJGX-6" value="PuzzleWindow" style="swimlane;fontStyle=2;align=center;verticalAlign=top;childLayout=stackLayout;horizontal=1;startSize=26;horizontalStack=0;resizeParent=1;resizeLast=0;collapsible=1;marginBottom=0;rounded=0;shadow=0;strokeWidth=1;" parent="WIyWlLk6GJQsqaUBKTNV-1" vertex="1">
          <mxGeometry x="240" y="400" width="160" height="138" as="geometry">
            <mxRectangle x="230" y="140" width="160" height="26" as="alternateBounds" />
          </mxGeometry>
        </mxCell>
        <mxCell id="kMb_RQb3rzIzfez7uJGX-7" value="" style="line;html=1;strokeWidth=1;align=left;verticalAlign=middle;spacingTop=-1;spacingLeft=3;spacingRight=3;rotatable=0;labelPosition=right;points=[];portConstraint=eastwest;" parent="kMb_RQb3rzIzfez7uJGX-6" vertex="1">
          <mxGeometry y="26" width="160" height="8" as="geometry" />
        </mxCell>
        <mxCell id="kMb_RQb3rzIzfez7uJGX-8" value="void show()&#xa;bpGameMode()&#xa;" style="text;align=left;verticalAlign=top;spacingLeft=4;spacingRight=4;overflow=hidden;rotatable=0;points=[[0,0.5],[1,0.5]];portConstraint=eastwest;" parent="kMb_RQb3rzIzfez7uJGX-6" vertex="1">
          <mxGeometry y="34" width="160" height="56" as="geometry" />
        </mxCell>
        <mxCell id="kMb_RQb3rzIzfez7uJGX-9" value="puzzleGameMode" style="swimlane;fontStyle=2;align=center;verticalAlign=top;childLayout=stackLayout;horizontal=1;startSize=26;horizontalStack=0;resizeParent=1;resizeLast=0;collapsible=1;marginBottom=0;rounded=0;shadow=0;strokeWidth=1;" parent="WIyWlLk6GJQsqaUBKTNV-1" vertex="1">
          <mxGeometry x="40" y="400" width="160" height="138" as="geometry">
            <mxRectangle x="230" y="140" width="160" height="26" as="alternateBounds" />
          </mxGeometry>
        </mxCell>
        <mxCell id="kMb_RQb3rzIzfez7uJGX-10" value="" style="line;html=1;strokeWidth=1;align=left;verticalAlign=middle;spacingTop=-1;spacingLeft=3;spacingRight=3;rotatable=0;labelPosition=right;points=[];portConstraint=eastwest;" parent="kMb_RQb3rzIzfez7uJGX-9" vertex="1">
          <mxGeometry y="26" width="160" height="8" as="geometry" />
        </mxCell>
        <mxCell id="kMb_RQb3rzIzfez7uJGX-11" value="void show()&#xa;bpGameMode()&#xa;" style="text;align=left;verticalAlign=top;spacingLeft=4;spacingRight=4;overflow=hidden;rotatable=0;points=[[0,0.5],[1,0.5]];portConstraint=eastwest;" parent="kMb_RQb3rzIzfez7uJGX-9" vertex="1">
          <mxGeometry y="34" width="160" height="56" as="geometry" />
        </mxCell>
        <mxCell id="l28VT6gjJC76ptkhdNlH-11" value="Backtracking" style="swimlane;fontStyle=1;align=center;verticalAlign=top;childLayout=stackLayout;horizontal=1;startSize=26;horizontalStack=0;resizeParent=1;resizeParentMax=0;resizeLast=0;collapsible=1;marginBottom=0;" vertex="1" parent="WIyWlLk6GJQsqaUBKTNV-1">
          <mxGeometry x="1670" y="-310" width="330" height="140" as="geometry">
            <mxRectangle x="40" y="630" width="190" height="120" as="alternateBounds" />
          </mxGeometry>
        </mxCell>
        <mxCell id="l28VT6gjJC76ptkhdNlH-12" value="+ int x;&#xa;+ int y;&#xa;+ point pt;Â &#xa;+ int dist;" style="text;strokeColor=none;fillColor=none;align=left;verticalAlign=top;spacingLeft=4;spacingRight=4;overflow=hidden;rotatable=0;points=[[0,0.5],[1,0.5]];portConstraint=eastwest;" vertex="1" parent="l28VT6gjJC76ptkhdNlH-11">
          <mxGeometry y="26" width="330" height="64" as="geometry" />
        </mxCell>
        <mxCell id="l28VT6gjJC76ptkhdNlH-13" value="" style="line;strokeWidth=1;fillColor=none;align=left;verticalAlign=middle;spacingTop=-1;spacingLeft=3;spacingRight=3;rotatable=0;labelPosition=right;points=[];portConstraint=eastwest;" vertex="1" parent="l28VT6gjJC76ptkhdNlH-11">
          <mxGeometry y="90" width="330" height="8" as="geometry" />
        </mxCell>
        <mxCell id="l28VT6gjJC76ptkhdNlH-14" value="+ isValid(int row, int col)&#xa;+ backtrackingRoute (char mat[][COL], Point src, Point dest)&#xa;" style="text;strokeColor=none;fillColor=none;align=left;verticalAlign=top;spacingLeft=4;spacingRight=4;overflow=hidden;rotatable=0;points=[[0,0.5],[1,0.5]];portConstraint=eastwest;" vertex="1" parent="l28VT6gjJC76ptkhdNlH-11">
          <mxGeometry y="98" width="330" height="42" as="geometry" />
        </mxCell>
        <mxCell id="kMb_RQb3rzIzfez7uJGX-21" value="Socket_Client" style="swimlane;fontStyle=2;align=center;verticalAlign=top;childLayout=stackLayout;horizontal=1;startSize=26;horizontalStack=0;resizeParent=1;resizeLast=0;collapsible=1;marginBottom=0;rounded=0;shadow=0;strokeWidth=1;" parent="WIyWlLk6GJQsqaUBKTNV-1" vertex="1">
          <mxGeometry x="860" y="400" width="160" height="138" as="geometry">
            <mxRectangle x="230" y="140" width="160" height="26" as="alternateBounds" />
          </mxGeometry>
        </mxCell>
        <mxCell id="kMb_RQb3rzIzfez7uJGX-22" value="" style="line;html=1;strokeWidth=1;align=left;verticalAlign=middle;spacingTop=-1;spacingLeft=3;spacingRight=3;rotatable=0;labelPosition=right;points=[];portConstraint=eastwest;" parent="kMb_RQb3rzIzfez7uJGX-21" vertex="1">
          <mxGeometry y="26" width="160" height="8" as="geometry" />
        </mxCell>
        <mxCell id="kMb_RQb3rzIzfez7uJGX-23" value="void show()&#xa;bpGameMode()&#xa;" style="text;align=left;verticalAlign=top;spacingLeft=4;spacingRight=4;overflow=hidden;rotatable=0;points=[[0,0.5],[1,0.5]];portConstraint=eastwest;" parent="kMb_RQb3rzIzfez7uJGX-21" vertex="1">
          <mxGeometry y="34" width="160" height="56" as="geometry" />
        </mxCell>
        <mxCell id="kMb_RQb3rzIzfez7uJGX-27" value="main" style="swimlane;fontStyle=2;align=center;verticalAlign=top;childLayout=stackLayout;horizontal=1;startSize=26;horizontalStack=0;resizeParent=1;resizeLast=0;collapsible=1;marginBottom=0;rounded=0;shadow=0;strokeWidth=1;" parent="WIyWlLk6GJQsqaUBKTNV-1" vertex="1">
          <mxGeometry x="620" y="-280" width="160" height="138" as="geometry">
            <mxRectangle x="230" y="140" width="160" height="26" as="alternateBounds" />
          </mxGeometry>
        </mxCell>
        <mxCell id="kMb_RQb3rzIzfez7uJGX-28" value="" style="line;html=1;strokeWidth=1;align=left;verticalAlign=middle;spacingTop=-1;spacingLeft=3;spacingRight=3;rotatable=0;labelPosition=right;points=[];portConstraint=eastwest;" parent="kMb_RQb3rzIzfez7uJGX-27" vertex="1">
          <mxGeometry y="26" width="160" height="8" as="geometry" />
        </mxCell>
        <mxCell id="kMb_RQb3rzIzfez7uJGX-29" value="void show()&#xa;bpGameMode()&#xa;" style="text;align=left;verticalAlign=top;spacingLeft=4;spacingRight=4;overflow=hidden;rotatable=0;points=[[0,0.5],[1,0.5]];portConstraint=eastwest;" parent="kMb_RQb3rzIzfez7uJGX-27" vertex="1">
          <mxGeometry y="34" width="160" height="56" as="geometry" />
        </mxCell>
        <mxCell id="kMb_RQb3rzIzfez7uJGX-34" value="BpWindow" style="swimlane;fontStyle=1;align=center;verticalAlign=top;childLayout=stackLayout;horizontal=1;startSize=26;horizontalStack=0;resizeParent=1;resizeParentMax=0;resizeLast=0;collapsible=1;marginBottom=0;" parent="WIyWlLk6GJQsqaUBKTNV-1" vertex="1">
          <mxGeometry x="290" y="-350" width="260" height="360" as="geometry" />
        </mxCell>
        <mxCell id="kMb_RQb3rzIzfez7uJGX-36" value="- RenderWindow* window&#xa;- int gameModePlayers&#xa;- int gameModeGoals&#xa;- int n_goalLeft&#xa;- int n_goalRight&#xa;- bool goalLeft&#xa;- bool goalRight&#xa;- vector&lt;Sprite&gt; players&#xa;- Sprite ballBackPath&#xa;- Sprite goalKLeft&#xa;- Sprite goalKRight&#xa;- char backtracking[9][14]&#xa;- string route&#xa;- Line *direction = nullptr&#xa;- bool dragged&#xa;- Vector2f velocity&#xa;- float dt&#xa;- Clock dt_clock&#xa;- Vector2f m_center&#xa;- float m_radius&#xa;- sf::Vector2f m_mouse&#xa;- sf::Font font&#xa;" style="text;strokeColor=none;fillColor=none;align=left;verticalAlign=top;spacingLeft=4;spacingRight=4;overflow=hidden;rotatable=0;points=[[0,0.5],[1,0.5]];portConstraint=eastwest;" parent="kMb_RQb3rzIzfez7uJGX-34" vertex="1">
          <mxGeometry y="26" width="260" height="334" as="geometry" />
        </mxCell>
        <mxCell id="kMb_RQb3rzIzfez7uJGX-38" value="Collision" style="swimlane;fontStyle=1;align=center;verticalAlign=top;childLayout=stackLayout;horizontal=1;startSize=26;horizontalStack=0;resizeParent=1;resizeParentMax=0;resizeLast=0;collapsible=1;marginBottom=0;" parent="WIyWlLk6GJQsqaUBKTNV-1" vertex="1">
          <mxGeometry x="700" y="90" width="160" height="110" as="geometry" />
        </mxCell>
        <mxCell id="kMb_RQb3rzIzfez7uJGX-39" value="" style="line;strokeWidth=1;fillColor=none;align=left;verticalAlign=middle;spacingTop=-1;spacingLeft=3;spacingRight=3;rotatable=0;labelPosition=right;points=[];portConstraint=eastwest;" parent="kMb_RQb3rzIzfez7uJGX-38" vertex="1">
          <mxGeometry y="26" width="160" height="4" as="geometry" />
        </mxCell>
        <mxCell id="kMb_RQb3rzIzfez7uJGX-40" value="void show()&#xa;bpGameMode()&#xa;" style="text;strokeColor=none;fillColor=none;align=left;verticalAlign=top;spacingLeft=4;spacingRight=4;overflow=hidden;rotatable=0;points=[[0,0.5],[1,0.5]];portConstraint=eastwest;" parent="kMb_RQb3rzIzfez7uJGX-38" vertex="1">
          <mxGeometry y="30" width="160" height="80" as="geometry" />
        </mxCell>
        <mxCell id="kMb_RQb3rzIzfez7uJGX-41" value="Line" style="swimlane;fontStyle=1;align=center;verticalAlign=top;childLayout=stackLayout;horizontal=1;startSize=26;horizontalStack=0;resizeParent=1;resizeParentMax=0;resizeLast=0;collapsible=1;marginBottom=0;" parent="WIyWlLk6GJQsqaUBKTNV-1" vertex="1">
          <mxGeometry x="760" y="-40" width="160" height="100" as="geometry" />
        </mxCell>
        <mxCell id="kMb_RQb3rzIzfez7uJGX-42" value="" style="line;strokeWidth=1;fillColor=none;align=left;verticalAlign=middle;spacingTop=-1;spacingLeft=3;spacingRight=3;rotatable=0;labelPosition=right;points=[];portConstraint=eastwest;" parent="kMb_RQb3rzIzfez7uJGX-41" vertex="1">
          <mxGeometry y="26" width="160" height="8" as="geometry" />
        </mxCell>
        <mxCell id="kMb_RQb3rzIzfez7uJGX-43" value="void show()&#xa;bpGameMode()&#xa;" style="text;strokeColor=none;fillColor=none;align=left;verticalAlign=top;spacingLeft=4;spacingRight=4;overflow=hidden;rotatable=0;points=[[0,0.5],[1,0.5]];portConstraint=eastwest;" parent="kMb_RQb3rzIzfez7uJGX-41" vertex="1">
          <mxGeometry y="34" width="160" height="66" as="geometry" />
        </mxCell>
        <mxCell id="kMb_RQb3rzIzfez7uJGX-44" value="Scroll" style="swimlane;fontStyle=1;align=center;verticalAlign=top;childLayout=stackLayout;horizontal=1;startSize=26;horizontalStack=0;resizeParent=1;resizeParentMax=0;resizeLast=0;collapsible=1;marginBottom=0;" parent="WIyWlLk6GJQsqaUBKTNV-1" vertex="1">
          <mxGeometry x="980" y="-30" width="160" height="100" as="geometry" />
        </mxCell>
        <mxCell id="kMb_RQb3rzIzfez7uJGX-45" value="" style="line;strokeWidth=1;fillColor=none;align=left;verticalAlign=middle;spacingTop=-1;spacingLeft=3;spacingRight=3;rotatable=0;labelPosition=right;points=[];portConstraint=eastwest;" parent="kMb_RQb3rzIzfez7uJGX-44" vertex="1">
          <mxGeometry y="26" width="160" height="8" as="geometry" />
        </mxCell>
        <mxCell id="kMb_RQb3rzIzfez7uJGX-46" value="void show()&#xa;bpGameMode()&#xa;" style="text;strokeColor=none;fillColor=none;align=left;verticalAlign=top;spacingLeft=4;spacingRight=4;overflow=hidden;rotatable=0;points=[[0,0.5],[1,0.5]];portConstraint=eastwest;" parent="kMb_RQb3rzIzfez7uJGX-44" vertex="1">
          <mxGeometry y="34" width="160" height="66" as="geometry" />
        </mxCell>
        <mxCell id="kMb_RQb3rzIzfez7uJGX-60" value="- int setGameModeGoals()&lt;br style=&quot;padding: 0px ; margin: 0px&quot;&gt;- void setGameModePlayers();&lt;br style=&quot;padding: 0px ; margin: 0px&quot;&gt;- void setPlayers()&lt;br style=&quot;padding: 0px ; margin: 0px&quot;&gt;- int getPositionXBall()&lt;br style=&quot;padding: 0px ; margin: 0px&quot;&gt;- int getPositionYBall()&lt;br style=&quot;padding: 0px ; margin: 0px&quot;&gt;- int getPositionXGoalPlayer()&lt;br style=&quot;padding: 0px ; margin: 0px&quot;&gt;+ int getPositionYGoalPlayer()&lt;br style=&quot;padding: 0px ; margin: 0px&quot;&gt;+ int getPositionXGoalCpu()&lt;br style=&quot;padding: 0px ; margin: 0px&quot;&gt;+ int getPositionYGoalCpu()&lt;br style=&quot;padding: 0px ; margin: 0px&quot;&gt;+ void displayBacktracking()&lt;br style=&quot;padding: 0px ; margin: 0px&quot;&gt;+ void setBacktracking()&lt;br style=&quot;padding: 0px ; margin: 0px&quot;&gt;+ void ballmove()&lt;br style=&quot;padding: 0px ; margin: 0px&quot;&gt;+ void updateDirectionLine()&lt;br style=&quot;padding: 0px ; margin: 0px&quot;&gt;+ bool checkCollisionPoint()&lt;br style=&quot;padding: 0px ; margin: 0px&quot;&gt;+ void collisionsBoards()&lt;br style=&quot;padding: 0px ; margin: 0px&quot;&gt;+ void collsionObstacles1()&lt;br style=&quot;padding: 0px ; margin: 0px&quot;&gt;+ void collsionObstacles2()&lt;br style=&quot;padding: 0px ; margin: 0px&quot;&gt;+ bool collisionGoal()&lt;br style=&quot;padding: 0px ; margin: 0px&quot;&gt;+ void GameOver()&lt;br&gt;+ BpWindow()&lt;br&gt;+ show ()&amp;nbsp;&lt;br&gt;&lt;span style=&quot;font-family: &amp;#34;jetbrains mono&amp;#34; , monospace ; color: rgb(204 , 120 , 50)&quot;&gt;&lt;br&gt;&lt;/span&gt;&lt;div style=&quot;padding: 0px ; margin: 0px&quot;&gt;&lt;br style=&quot;padding: 0px ; margin: 0px&quot;&gt;&lt;/div&gt;&lt;div style=&quot;padding: 0px ; margin: 0px&quot;&gt;&lt;br style=&quot;padding: 0px ; margin: 0px&quot;&gt;&lt;/div&gt;" style="rounded=0;whiteSpace=wrap;html=1;align=left;" vertex="1" parent="WIyWlLk6GJQsqaUBKTNV-1">
          <mxGeometry x="290" y="10" width="260" height="340" as="geometry" />
        </mxCell>
        <mxCell id="kMb_RQb3rzIzfez7uJGX-70" value="bpGameMode" style="swimlane;fontStyle=2;align=center;verticalAlign=top;childLayout=stackLayout;horizontal=1;startSize=20;horizontalStack=0;resizeParent=1;resizeLast=0;collapsible=1;marginBottom=0;rounded=0;shadow=0;strokeWidth=1;" vertex="1" parent="WIyWlLk6GJQsqaUBKTNV-1">
          <mxGeometry x="40" y="90" width="160" height="138" as="geometry">
            <mxRectangle x="230" y="140" width="160" height="26" as="alternateBounds" />
          </mxGeometry>
        </mxCell>
        <mxCell id="kMb_RQb3rzIzfez7uJGX-71" value="" style="line;html=1;strokeWidth=1;align=left;verticalAlign=middle;spacingTop=-1;spacingLeft=3;spacingRight=3;rotatable=0;labelPosition=right;points=[];portConstraint=eastwest;" vertex="1" parent="kMb_RQb3rzIzfez7uJGX-70">
          <mxGeometry y="20" width="160" height="8" as="geometry" />
        </mxCell>
        <mxCell id="kMb_RQb3rzIzfez7uJGX-72" value="void show()&#xa;bpGameMode()&#xa;" style="text;align=left;verticalAlign=top;spacingLeft=4;spacingRight=4;overflow=hidden;rotatable=0;points=[[0,0.5],[1,0.5]];portConstraint=eastwest;" vertex="1" parent="kMb_RQb3rzIzfez7uJGX-70">
          <mxGeometry y="28" width="160" height="60" as="geometry" />
        </mxCell>
        <mxCell id="l28VT6gjJC76ptkhdNlH-18" value="BpServer" style="swimlane;fontStyle=1;align=center;verticalAlign=top;childLayout=stackLayout;horizontal=1;startSize=26;horizontalStack=0;resizeParent=1;resizeParentMax=0;resizeLast=0;collapsible=1;marginBottom=0;" vertex="1" parent="WIyWlLk6GJQsqaUBKTNV-1">
          <mxGeometry x="2068" y="-297" width="162" height="124" as="geometry" />
        </mxCell>
        <mxCell id="l28VT6gjJC76ptkhdNlH-19" value="+ char 	backtrackingServerÂ &#xa;+ int 	Xpos&#xa;+ int 	Ypos" style="text;strokeColor=none;fillColor=none;align=left;verticalAlign=top;spacingLeft=4;spacingRight=4;overflow=hidden;rotatable=0;points=[[0,0.5],[1,0.5]];portConstraint=eastwest;" vertex="1" parent="l28VT6gjJC76ptkhdNlH-18">
          <mxGeometry y="26" width="162" height="64" as="geometry" />
        </mxCell>
        <mxCell id="l28VT6gjJC76ptkhdNlH-20" value="" style="line;strokeWidth=1;fillColor=none;align=left;verticalAlign=middle;spacingTop=-1;spacingLeft=3;spacingRight=3;rotatable=0;labelPosition=right;points=[];portConstraint=eastwest;" vertex="1" parent="l28VT6gjJC76ptkhdNlH-18">
          <mxGeometry y="90" width="162" height="8" as="geometry" />
        </mxCell>
        <mxCell id="l28VT6gjJC76ptkhdNlH-21" value="+ method(type): type" style="text;strokeColor=none;fillColor=none;align=left;verticalAlign=top;spacingLeft=4;spacingRight=4;overflow=hidden;rotatable=0;points=[[0,0.5],[1,0.5]];portConstraint=eastwest;" vertex="1" parent="l28VT6gjJC76ptkhdNlH-18">
          <mxGeometry y="98" width="162" height="26" as="geometry" />
        </mxCell>
      </root>
    </mxGraphModel>
  </diagram>
</mxfile>
